<svg width="210" height="120" xmlns="http://www.w3.org/2000/svg">

 <metadata id="metadata5">image/svg+xml</metadata>
 <g>
  <title>background</title>
  <rect fill="none" id="canvas_background" height="122" width="212" y="-1" x="-1"/>
 </g>
 <g>
  <title>Layer 1</title>
  <g id="layer1">
   <g id="g18" transform="matrix(0.35277777,0,0,-0.35277777,-4.1216272,287.31913)">
    <path fill="#ec1c24" fill-rule="evenodd" d="m401.274689,737.471313c-5.1698,-1.612915 -10.219208,-2.631104 -15.157104,-4.452332c-2.248688,-0.829468 -4.938782,-2.337158 -6.921387,-2.860962c-2.707916,-0.71582 -5.253418,-1.399536 -7.69632,-2.252686c1.005402,0.002991 1.263123,0.246277 2.233704,0.390564c0.787201,0.117004 1.591919,0.014404 2.187805,-0.54541c-1.21579,-0.719666 -2.8367,-2.45105 -4.395691,-2.771973c-0.776703,-0.159912 -0.584015,-0.432922 -1.542114,-0.886414c-0.68338,0.585938 -0.943085,0.917603 -1.971802,0.891479c-1.096985,-0.027771 -1.179199,-0.240356 -1.604401,-0.973999c-0.026001,-0.0448 -0.054077,-0.138 -0.10199,-0.192688c-3.401306,1.048828 -11.713104,0.502808 -14.774994,-1.106689c-0.466309,-0.245178 -0.287201,-0.423767 -1.032104,-0.434509c-0.105194,-0.002014 -0.665009,0.083923 -0.870605,0.095825c-1.621704,0.093506 -1.967804,-0.434631 -3.229187,-0.650024c-2.637115,-0.450684 -3.607117,0.917297 -7.229218,0.120483c-1.96579,-0.432251 -4.605377,-0.307861 -6.970886,-0.832581c-1.773712,-0.393066 -5.176117,-1.836487 -6.340302,-1.838806c-4.52301,-0.008972 -9.636688,-1.106384 -12.899597,-2.991699c1.535187,0.066589 1.519592,0.586792 2.275604,0.473145l0.339081,-0.110657c-2.0271,-1.976257 -2.709076,-0.699463 -3.706879,-0.350891c-3.209717,-2.63678 -18.186218,-5.702698 -18.408508,-5.534302c-0.433105,0.688538 -0.621002,1.384399 -0.398193,2.375122c0.327576,1.456177 0.9039,0.789978 0.439301,2.304871c-1.682312,-1.62146 -0.517303,-3.315674 -3.359314,-4.041077c-2.958191,-0.755371 -5.080292,-4.343506 -10.178406,-4.462891c-0.681091,-0.01593 -1.050781,0.09021 -1.638977,-0.071716c-0.648804,-0.178589 -0.434509,-0.405884 -1.372803,-0.61676c-1.889801,-0.424438 -1.553711,-0.062439 -3.092316,-0.90741c-0.420685,0.990173 0.115112,1.431458 -0.98111,2.025879l-0.158386,-0.677673c-0.083405,-0.580811 0.230103,-0.022705 -0.086792,-0.718933c-1.107208,0.24292 -2.139313,-0.131165 -3.235413,-0.33667c-0.200195,-0.037537 -0.457794,-0.065491 -0.621399,-0.102417l-0.364502,-0.104614c-0.038605,-0.010803 -0.11911,-0.029175 -0.170898,-0.060364c0.915009,-1.520508 1.610596,0.793152 2.877991,-0.73584c-0.544891,-0.386108 -5.35498,-1.454163 -6.126282,-1.419312l0.386108,-1.642944c2.136993,0.033691 3.8815,1.446777 6.931885,1.223145c0.38739,-1.336853 0.310608,-2.831848 -1.240204,-2.411987l0.247711,0.332214c0.46579,0.670898 0.389801,0.035706 0.562683,1.010193c-1.897797,0.020691 -2.833191,-0.987305 -4.196686,-1.198975c-3.583801,-0.556702 -6.481995,-2.526794 -8.507294,-2.253601c-1.320099,0.178101 -0.751495,0.553101 -2.247009,0.011658c-0.730011,-0.264465 -1.172394,-0.492371 -1.959305,-0.686584c-0.07489,7.130798 2.388107,14.385803 -5.050201,18.901123c-5.701096,3.460876 -14.963898,1.819275 -20.058594,-1.218018c-2.423294,-1.444519 -1.421005,-0.998108 -4.558105,-0.601807c-1.948196,0.246094 -3.925095,0.444519 -5.873596,0.513611c-9.286102,0.330017 -22.283203,-3.970398 -29.9104,-7.870605c-5.917892,-3.026001 -10.665604,-6.455383 -14.845901,-10.178101c-4.5289,-4.033081 -8.471298,-8.101685 -12.288696,-12.963684c-1.816498,-2.313416 -3.531097,-4.608337 -5.229095,-7.280212c-1.3396,-2.108093 -5.80191,-10.513428 -6.827011,-11.805176c-0.378891,-0.477295 -3.539886,-1.563293 -4.405289,-1.973694c-2.631699,-1.248718 -5.788605,-3.459534 -9.012711,-3.757751c-0.233902,-1.076782 -0.142899,-1.893799 -2.323288,-1.871948l1.23819,1.041443c-1.415894,0.629333 -3.082703,-1.351746 -4.166702,-1.980896c-0.885498,-0.513855 -0.896896,-0.251404 -1.309601,-1.054688c2.296402,-0.012207 2.800903,1.45874 4.960907,1.283508c0.569199,-4.216492 -4.748596,-1.990173 -5.320297,-4.378418c0.6987,-0.315186 1.159897,-0.015564 2.035492,-0.042175c-1.852692,-1.936096 -3.983795,-3.014099 -7.164192,-3.940796c-3.042801,-0.886902 -5.452202,-1.97998 -8.378403,-2.971191c-2.554298,-0.865234 -6.059097,-1.663696 -8.536301,-2.706787l-3.050598,-1.112122c-1.576904,-0.30719 -0.881599,-1.363708 -5.024399,-2.398926c-2.723,-0.680298 -5.764,-1.777893 -8.602005,-2.613892c-2.423401,-0.713684 -24.552299,-7.110107 -25.297295,-8.981018c0.780396,-0.701782 1.101601,0.17865 4.4235,0.925354c4.790794,1.076782 9.417,2.623657 14.092697,4.025391c3.198898,0.95929 6.130203,1.830688 9.3909,2.612976c1.298599,0.311584 6.638199,1.062378 7.402397,1.441223c0.8601,0.42627 0.7798,0.847473 2.121803,1c-2.158096,-4.177734 -12.406998,-4.949829 -11.603104,-6.638428c0.242905,-0.246887 0.010803,-0.157593 0.464302,-0.293396c0.7481,-0.223694 1.562202,0.080505 2.281601,-0.163879c-0.704399,-1.732788 -0.660202,-0.963989 -1.919296,-1.683228c0.7911,-0.609375 1.877396,0.20874 2.849396,0.152222l-0.3368,-1.445618c1.094498,0.373291 1.074898,0.924133 2.346001,1.003418c-0.286102,-0.617126 -0.635002,-0.591797 -0.676697,-1.352905c1.445099,-0.184631 2.099693,0.031982 3.387199,0.449768c0.943596,0.305908 2.445099,0.92981 3.212196,0.434631c-1.158501,-0.708984 -1.580902,-0.106873 -1.949699,-1.723511l1.711601,0.816406c-0.383301,-1.638977 -1.019104,-1.46521 -2.631203,-1.252075c0.140404,0.285461 0.1866,0.227905 0.2342,0.436279c0.157303,0.686829 0.258804,0.083313 -0.040298,0.513306c-0.798798,-0.620178 -1.461197,-1.162537 -2.334602,-1.826111l-2.7547,-1.561584c2.149506,-1.258301 5.704201,1.148376 7.715401,1.592773l-0.430099,-1.363708l1.256599,0.162415c0.607201,-0.08667 0.191101,0.044495 0.589104,-0.208069c-0.981903,-0.252808 -1.760101,-0.697632 -2.647903,-1.157104c-0.875,-0.452942 -1.863998,-0.600891 -2.556496,-1.026917c0.588196,-0.357788 2.462395,0.822021 3.071297,1.057007c1.172104,0.452393 2.4058,0.877014 3.577003,1.284119c2.448296,0.850891 4.855797,1.477051 7.280495,2.294067c1.140701,0.384277 2.2034,0.723389 3.416405,1.247192c1.3535,0.584229 1.979996,1.131592 3.307701,1.606384c1.7388,0.621643 5.968094,2.588013 7.625496,1.488831c-0.112801,-0.777283 -1.0811,-1.069031 -1.808502,-1.43042c-3.967094,-1.971497 -8.317993,-3.26239 -12.514397,-4.643372c-1.553398,-0.511414 -3.738098,-1.479431 -5.078003,-1.828125c2.738304,-0.106567 9.617104,2.536743 12.2882,3.454041c7.039001,2.418274 6.148605,1.860657 12.772896,3.422302c-0.022095,1.188293 -1.2285,0.178284 0.819504,1.643799c0.371597,-0.311523 0.357697,-0.359741 1.046799,-0.494751c-0.228088,-1.113403 -0.552994,-2.46405 -1.050797,-3.247253c-1.455292,-0.832825 -10.2444,-2.977295 -12.698898,-3.700928c-2.098801,-0.61908 -4.092903,-1.150879 -6.254105,-1.832581c-1.072296,-0.338501 -1.9618,-0.776184 -2.922195,-1.244202c-6.879105,-3.352539 -1.672699,0.68457 -5.376198,-1.22821c-0.979904,-0.505981 -2.241402,-0.606628 -2.947205,-1.242676c-4.173698,-3.761597 -8.711998,-4.842224 -14.056702,-6.538147c-1.958694,-0.621399 -1.469994,-0.355164 -2.071297,-2.161987c-0.520699,0.473938 -0.482399,0.784607 -1.407402,0.744934c-0.5924,-0.025513 -1.352699,-0.239197 -2.222099,-0.262207c0.078003,-0.719727 1.1875,-0.475647 -0.948402,-1.722046c-0.750099,-0.437683 -1.643799,-1.005188 -2.523994,-1.403503c-1.915901,-0.867065 -3.676003,-1.380371 -6.005501,-1.841553c-7.402702,-1.46582 -10.160805,-3.271545 -17.2136,-5.836304c-3.7803,-1.374512 -4.372803,-0.301941 -5.9967,-1.852722c-2.183899,-2.085693 -2.620399,-1.276978 -5.490799,-2.125977c-1.134903,-0.335938 -5.112003,-1.485596 -5.741001,-1.952209c6.327301,-1.190613 14.243599,4.458313 20.913799,5.489624c2.662601,0.41156 4.943897,0.454041 7.246998,1.510559l0.297104,-0.490662c0.338699,-0.303955 -0.255104,-0.094727 0.472801,-0.293152c1.630798,-0.444458 14.947998,4.35144 18.441093,4.501709c-0.042,-0.050781 -0.110794,-0.058105 -0.134094,-0.145203l-0.421799,-0.385498c-0.231606,-0.172607 -0.3983,-0.247986 -0.618805,-0.370972c-3.103401,-1.731384 -6.682098,-2.871216 -9.877296,-4.342712c-3.836105,-1.766296 -1.923004,-1.132996 -6.241302,-1.842773c-4.758598,-0.782104 -19.795498,-5.454224 -25.391399,-7.218201c-1.0564,-0.333008 -2.029301,-0.671509 -3.075001,-1.106018c-2.6889,-1.117737 -0.899399,-0.630188 -2.877701,-0.3396c-0.876198,-0.939087 -1.1189,-2.577026 -1.547699,-3.666382c1.753502,0.896057 -0.038601,1.393555 3.010101,1.683777c3.625198,0.345581 7.497898,2.536194 10.9202,2.88678c-3.6049,-3.597656 -5.332901,-1.518494 -6.9855,-4.127808c1.748398,0.206116 4.2985,1.166809 5.984501,1.706238c5.098698,1.630493 13.381599,4.723083 18.491596,4.454895l-0.418999,-1.219177c1.207901,0.351257 1.512001,0.845093 3.122704,1.102173c1.062698,0.169678 2.584297,0.31427 3.684998,0.363098c-1.078903,-0.983093 -2.831001,-1.323792 -4.527199,-1.612427c0.433395,-0.32196 -0.445099,-0.464844 1.253197,-0.272644c6.3731,0.721985 31.861404,10.560181 38.278198,10.192261l-1.849297,-1.081177c1.569496,-0.984985 5.728798,2.295288 8.521202,1.390381c-0.2696,-0.455811 0.075096,-0.343811 -1.677002,-0.740112l-5.996399,-1.348389c-2.738304,-0.652283 -5.082199,-1.643616 -7.435303,-2.265503l0.498604,1.221497c-2.4953,-0.792603 -2.719803,-2.222961 -4.229805,-3.146179c-1.234795,0.291382 -0.692497,0.9646 -2.097694,0.066589c-0.581604,-0.372192 -0.992599,-0.764771 -1.842506,-1.121094c-1.657394,-0.695007 -2.913399,-0.704102 -4.007294,-1.882202c-0.465202,0.027222 -0.701904,0.39032 -1.278404,0.293396c-1.468399,-0.247192 -1.896996,-2.048279 -3.280296,-2.631714l-11.748703,-3.917175c-1.379097,-0.475098 -5.330002,-1.299133 -6.125999,-1.694336c-0.628197,-1.613647 0.365402,-1.534302 -0.290298,-3.187744c-0.628105,-0.459839 -1.731705,-0.654846 -2.606705,-1.042053c-2.759495,-1.220581 -4.861397,-2.593994 -7.919197,-3.360168c-0.650799,-1.249207 0.396301,-0.938293 -1.722,-1.727417c-1.197098,-0.446167 -1.4618,-0.60376 -2.4491,-0.061768c0.258801,1.666199 3.5163,2.35437 5.076,2.833191c2.104401,0.646301 4.081303,1.23761 5.663002,2.196777c-1.586002,0.523926 -12.012402,-3.351563 -13.354,-4.275696c0.205799,-0.585083 0.4958,-0.245789 0.572899,-0.859192c-1.644402,-1.123718 -1.961899,-1.894104 -4.221401,-2.632324c-1.383598,-0.452087 -4.194397,-1.122986 -5.252899,-1.615662c0.551701,-0.429199 1.268299,-0.151123 1.955101,0.070862l0.668701,-0.643494c0.519897,-0.285706 0.427197,-0.223877 1.0355,-0.215698c0.616199,0.009033 1.493599,0.282898 2.093899,0.436829c2.312801,0.593872 2.4398,0.479614 4.108299,-0.433716c0.581699,1.250122 1.279301,1.941406 2.680401,2.451416l7.296101,3.008057c1.095898,0.421814 2.971897,0.856628 3.961697,1.430115c-2.447098,0.329712 -4.369297,-1.028687 -6.853298,-0.924683c2.549801,1.743591 15.480297,5.357788 19.197102,6.493591l14.667,4.705017c1.604698,0.560974 3.366402,1.374512 4.944496,1.752075c-2.641594,-3.974976 -12.391998,-5.222595 -17.1213,-7.236572c-0.5924,-0.252319 -1.5681,-0.551941 -1.629295,-0.98761c-0.243004,-1.731689 0.664398,1.038391 0.028,-0.444702c-0.254799,-0.593628 -2.039505,-0.86969 -2.718399,-1.344788c5.6548,-0.25824 13.0513,5.215759 18.156799,5.857178l0.133995,-1.045715c1.376503,0.373901 2.340607,0.526245 3.053802,1.265442l0.389198,-0.610046c0.352905,-0.347473 -0.250298,-0.307495 0.800499,-0.323364c0.957306,-0.014832 0.754906,0.511292 1.783005,-0.018433c-0.409904,-1.306274 -2.233704,-0.887573 -2.9282,-2.413147c1.928696,0.474792 3.923401,2.209595 6.085999,2.10498c0.681702,-0.828308 0.142303,-0.547607 0.490402,-1.360596c2.486801,-0.128418 8.907898,2.089111 10.467796,0.933167c-0.827797,-0.618286 -2.342598,-0.748657 -3.337601,-1.249512l1.426201,-0.412781c-4.050797,-1.793213 -8.469696,-3.317383 -12.355103,-5.32196c-0.924095,-0.476807 -2.126297,-1.348755 -2.897598,-1.52002c-1.631599,-0.361938 -1.992798,-0.199829 -3.577896,-0.8396c-0.777802,-0.313782 -5.809006,-2.387024 -6.110405,-2.658325c4.877106,-0.383301 22.390305,9.975403 26.209503,7.833191c-0.271301,-0.641968 0.059502,-0.21875 -0.319801,-0.211365c-0.010498,0.000305 -0.279999,0.130371 -0.617096,0.182312c-0.144302,-1.828735 -2.398705,-1.467529 -5.769905,-2.59375c-6.562195,-2.192383 -7.289597,-4.305603 -10.522804,-6.155945c-0.913002,-0.522827 -2.191704,-0.467834 -3.275101,-0.890137c-1.1968,-0.466309 -1.698006,-1.123108 -2.427902,-1.488464c1.1605,0.047852 4.500801,1.363464 5.777298,1.798889c1.783798,0.607971 4.412704,1.620178 6.4114,1.774658l-2.253799,-1.002869c-2.4608,-0.933411 -5.658302,-1.787231 -7.667496,-2.655701c-1.013603,-0.437988 -0.561806,-0.719482 -2.139305,-1.256104c-0.895699,-0.304382 -1.680901,-0.532288 -2.634796,-0.823425c-6.620605,-2.020569 -21.610199,-4.975952 -25.131702,-9.015076c3.124897,0.330811 2.590298,0.799988 4.610897,1.721008c-0.279198,-0.607239 -0.183693,-0.042786 -0.251999,-0.601013c-0.061295,-0.50061 -0.091896,-0.283203 0.094604,-0.608276c1.269096,0.394287 0.170097,0.146301 0.980797,1.121399c6.688698,0.511353 20.096001,5.939697 22.312401,5.925781c0.931999,-0.005981 0.586998,-0.394592 1.804802,0.190796c0.5839,0.280579 0.035995,0.13092 0.547897,0.186523c6.390198,0.693359 12.265503,5.123901 18.58741,6.082581c-1.307602,-1.847595 -3.116196,-3.147583 -5.2472,-3.681702c-0.944801,-0.236572 -1.860703,-0.256775 -2.249001,-0.996582c0.602005,-1.249817 1.789703,-0.68573 2.934105,-0.200745c0.937996,0.397705 1.941399,0.918152 2.7519,1.386414l0.138,-0.462585c0.008995,-0.025513 0.031799,-0.097473 0.042,-0.124207l0.235199,-0.516968c-8.618111,-4.906799 -9.420113,-4.331299 -17.121803,-7.894531c-1.515701,-0.701294 -3.414902,-1.588806 -4.7491,-2.603271l-0.680099,-0.680115c6.286102,1.212097 12.506203,5.680969 19.670792,6.40918l-0.674698,-1.395203c2.536194,0.722839 3.410393,1.632202 6.831497,2.185242c2.560501,0.413879 5.011696,0.730957 7.510101,1.357483c-1.348404,-3.002991 -7.097099,-2.440308 -8.238602,-5.027527c1.113701,-0.467651 1.435196,-0.296509 2.679001,-0.30249c-1.386703,-1.751221 -4.4067,-1.513367 -6.062401,-3.234009c-1.438004,-1.494507 -0.010498,-0.531006 -2.041298,-1.086304c2.094597,0.070129 5.686897,1.00293 7.732399,0.051636c1.096695,-0.509888 0.5037,0.033813 0.641998,-0.858643c-0.466797,-0.334473 -0.577103,-0.225891 -1.110901,0.081726c-0.031097,0.018127 -0.090996,0.081604 -0.142799,0.113098c-0.832001,-1.844299 -0.789803,-0.473389 -2.866699,-1.492798c-1.100098,-0.539978 -2.4664,-0.69812 -3.689301,-1.214294c-0.624702,-0.263733 -1.126801,-0.515076 -1.667,-0.803711c-1.322998,-0.706909 -0.660004,-0.518372 -1.061302,-1.002014c-0.771301,-0.92981 -2.104195,-0.89917 -2.770599,-2.279602l7.096504,2.534241c-1.942307,-2.217041 -5.9235,-2.507324 -8.532005,-4.029236c-1.130699,-0.660156 -1.508301,-1.253784 -2.322395,-1.8479c2.371498,-0.008972 6.377098,2.497925 8.530602,2.68042c-0.449905,-0.179077 -1.500702,-1.229614 -2.846603,-1.720886c-1.238403,-0.452087 -2.635101,-0.649414 -3.312798,-1.507202c3.044899,-0.183899 4.959198,1.619507 7.460495,1.820374c-0.726799,-1.94397 -0.629295,-1.970276 1.5672,-2.182861c0.353806,1.028381 -1.510796,0.223267 0.510605,1.242371c1.458397,0.734985 4.169998,0.343811 2.506897,-0.999817c-0.612,-0.494568 -0.926003,-0.125305 -1.775902,-1.180298c-1.098396,-1.364075 -2.012894,-1.405151 -3.8423,-1.832581c-1.881699,-0.440002 -2.420494,-1.101013 -3.897095,-1.70282c-0.945404,-0.384888 -3.165703,-0.748291 -4.316605,-1.102661c-4.201797,-1.293396 -8.308899,-3.086914 -12.296097,-4.599792c-2.528801,-0.959839 -6.148102,-1.714111 -8.331604,-2.698547c-7.167397,-3.230652 -14.359497,-6.177002 -21.719398,-8.93396c-1.268497,-0.475098 -1.391499,-0.254333 -1.586197,-1.524719c6.363499,1.254883 30.414597,12.128601 35.781105,12.826172l-0.613098,-1.195374c1.409103,0.43988 0.886398,0.849487 1.577499,1.555115c0.532906,0.543884 1.703606,0.605713 2.358704,0.835571c1.494698,0.525024 3.3367,1.774231 5.098701,1.527344c0.126999,-1.62085 -1.981201,-2.088806 -4.661301,-3.184753c-11.173904,-4.569397 -22.9692,-8.201965 -34.018013,-13.0578c-1.028698,-0.452087 -4.897198,-1.765686 -5.252399,-2.94397c2.301498,-0.825195 9.674702,2.701721 12.128597,3.663696l17.421501,6.842896c2.381699,0.879272 3.9645,0.612305 6.452805,1.659729c1.082001,0.455444 4.742294,2.252075 5.661301,2.450745c1.778198,0.384399 0.174896,-1.128174 2.553497,-0.155273c1.844803,0.754822 1.436302,0.330811 2.355301,1.749512c0.9646,-0.161621 0.427696,-0.138611 1.247498,-0.461487l-0.557297,-1.164551c3.999397,3.759338 1.229698,0.83374 4.1091,2.043518c0.740395,0.31134 1.498695,0.707825 2.2547,0.348999c-0.956703,-1.271118 -1.026703,0.507141 -1.419304,-1.226013c0.375,-0.185669 -0.076797,-0.19635 0.728798,-0.155579c0.001007,0 0.689705,0.197327 0.725403,0.217407l1.405998,0.799377c3.468102,0.678345 6.835106,1.736206 10.2146,2.791504c4.079903,1.273926 9.174606,3.357727 13.816299,3.512085c-0.247696,-1.031189 -0.639999,-1.174072 -1.068893,-1.97876c1.232803,0.199463 2.760696,0.846985 4.091797,1.248596c1.079407,0.325684 2.144104,0.735107 3.257294,0.75769l1.271912,-0.326172c-0.646011,-1.199097 -3.377213,-1.534729 -4.609711,-2.12323c2.714798,0.163025 5.349304,1.035217 7.481506,1.139282c-3.044098,-2.418457 -11.357895,-3.072449 -15.856995,-4.215393c-3.090103,-0.784912 -4.765106,-1.637573 -7.215607,-2.847961c-2.863899,-1.414551 -5.2183,-0.687134 -6.977203,-3.228394c1.321503,0.248596 2.896706,0.646545 4.404503,0.651672c0.701797,0.002014 0.369003,-0.055603 0.838699,-0.205505c0.594704,-0.18988 0.217705,-0.276917 1.197098,-0.156494c2.052605,0.252625 4.014404,1.68042 6.045204,2.120911c2.4953,0.541382 2.078094,-0.862305 4.342697,0.581116c2.669296,-1.636719 5.129807,1.050171 7.819595,0.191895c-0.355194,-0.67804 -1.020996,-1.101196 -1.6194,-1.634399c-0.034286,-0.030701 -0.099792,-0.089905 -0.146591,-0.138123c2.389297,-0.050171 4.717697,0.203308 6.452499,1.17749c0.578903,-0.973694 -0.459198,-0.564087 0.735901,-1.205811c0.026398,0.053345 0.027496,0.210327 0.031693,0.17572l0.107498,0.65741c0.154205,0.446106 -0.421799,0.150208 0.500305,0.570007c1.073502,0.488953 3.280807,-0.865112 6.221497,0.614807c-0.7883,1.977783 -3.838089,0.651367 -5.454697,1.430359c-1.242691,0.598999 -0.308395,0.032593 -0.767105,0.696533c3.287415,0.726196 9.485611,1.443665 13.03511,1.590454c-0.423508,-0.929749 -0.871307,-0.907654 -1.347305,-1.951843c4.1604,-0.580933 9.933807,0.781189 12.636002,-1.98291c-1.0746,-1.390625 -1.975204,-0.821716 -3.843201,-1.077698c-1.138702,-0.15625 -1.786896,-1.534119 -2.307404,-2.537903c-2.161102,1.422668 -3.548691,-0.085632 -5.852097,-0.32959c-1.2827,-0.136108 -1.372803,0.494873 -1.350998,-1.149231c2.123093,-0.380676 3.489197,1.64978 5.769897,1.381592l-0.196396,-1.77356c2.087097,0.075867 6.166199,0.826599 7.739395,-0.644104c-0.444199,-0.5672 -0.785202,-1.078308 -1.813293,-0.960327c-1.942307,0.222778 -0.464905,0.452393 -2.60791,-0.121887c-0.89209,1.645508 -2.708801,1.497498 -4.943298,1.201599c-0.964401,-0.12793 -5.3181,-0.416687 -5.710098,-0.609802l0.921509,-0.546509c1.27449,-0.617615 2.508896,-0.568298 3.9991,-0.613098c-0.371307,-0.756592 -0.762802,-0.870789 -1.267609,-1.039978c-0.060699,-0.020447 -0.132401,-0.035217 -0.190796,-0.055298l-0.536896,-0.22345c1.687195,-0.9198 3.175995,0.332031 5.373398,0.030151c0.326004,-0.661438 0.165802,-0.590515 0.155594,-1.483704c2.489105,1.453247 0.912704,1.091858 4.709808,-0.271301c1.912201,-0.686523 3.885696,-0.443298 5.43399,0.470276l0.340698,-0.830322c0.355499,-0.551575 -0.277191,-0.255371 0.694504,-0.508179c0.849503,-0.221375 1.434906,0.038818 2.375397,-0.291077c-0.323395,-0.925293 -0.563492,-0.750122 -2.6492,-1.044617c-1.111496,-0.156982 -2.3004,-0.238708 -3.467392,-0.202698c-2.312805,0.071716 -4.444702,0.516479 -6.7164,0.904785c-2.968201,0.507202 -5.382401,0.363708 -8.358505,0.026428c-1.545197,-0.175232 0.6409,0.172852 -0.842499,0.152771c-0.947296,-0.012512 -1.628799,-0.673462 -3.2173,-0.610291l0.296204,1.755798c-4.356796,1.732178 -8.928497,1.25708 -13.922302,0.789978c-2.186707,-0.204346 -4.678604,-0.51416 -6.951401,-0.543396c-2.7556,-0.0354 -4.566399,-0.642883 -5.660797,-2.310303c1.725998,-0.139954 4.760193,0.25061 5.338699,-1.345581c-1.0457,-0.052124 -1.586807,0.057922 -2.478302,-0.24231c0.363998,-0.834473 1.124008,-0.831116 2.045502,-0.859497c0.975998,-0.029968 1.968094,0.020386 2.938705,0.119629c1.765396,0.181152 3.426788,0.618286 5.167496,0.765381c-0.252502,-1.101807 -0.771805,-1.643494 -0.930008,-2.427002c0.827103,0.261597 1.309601,0.543701 2.372604,0.347809c0.206909,-2.230591 -4.009598,-2.98291 -5.532104,-3.243713c-1.839386,-0.31488 -3.420288,-0.764191 -5.034088,-1.574402l-1.467506,-1.115387c4.592506,0.183411 9.819496,1.869995 14.7649,2.279297c3.619797,0.299713 4.427094,-0.029999 7.383408,-0.946198c2.460388,-0.762207 5.660187,-0.031708 8.30719,-0.141998c2.679306,-0.111389 4.981903,-0.669189 7.845703,-0.707794c6.910599,-0.093506 18.773605,1.931488 24.693497,0.528076c-1.417389,-1.957886 -1.66539,-1.649994 -4.297897,-2.551178c8.577896,-0.644623 37.536606,11.826721 45.474808,11.813721l-0.673508,-1.365723c1.038605,0.294983 1.717194,0.747681 2.7453,1.211487c1.849594,0.834229 3.935104,1.421021 5.7005,2.393799c0.367096,0.202393 1.049698,0.687195 1.236694,0.769409c0.509109,0.224487 0.123901,0.223083 0.513107,0.046692c0.880997,-0.399109 -0.546799,0.4729 0.234695,-0.188782l0.39151,-0.412109c0.725891,0.252625 2.509491,1.041382 3.097092,1.390076c1.116608,0.66272 0.9077,1.608093 2.180405,2.253845c-5.299103,0.957581 -16.007797,-2.13623 -21.087708,-3.430542c-5.055389,-1.287964 -15.649796,-4.340881 -20.950089,-3.824951c0.95929,0.805542 2.549789,0.804993 3.764999,1.144287l1.278397,0.726501c-3.415405,0.175171 -6.337097,-0.775513 -9.533997,-0.645691c1.203598,0.910767 7.224899,2.472656 8.687592,2.925842c5.989609,1.855652 11.808899,3.890625 18.016998,5.298523c1.095001,0.248596 1.4729,0.187683 2.101303,0.820129c1.067902,1.07489 1.656296,2.772888 3.593002,1.757202c1.039398,-0.545105 0.342697,-0.862305 1.740402,-1.293396c0.948792,0.612793 0.563797,0.655273 1.225998,1.430298c1.738495,-0.248352 3.433304,-0.416443 4.481003,0.783203c0.731888,0.838196 1.0681,2.723267 2.952591,2.613892c0.10231,-0.874023 -0.338501,-1.389038 -0.711502,-2.002991c0.557007,0.423157 0.939102,0.717163 1.335999,1.226257c1.152206,1.479614 0.142014,0.458618 1.789215,1.139221c0.657089,0.271606 3.091492,1.894714 3.437286,2.504089c-0.312988,0.572083 -0.808487,0.59729 -1.272491,0.980774c1.034103,1.031006 1.210693,0.681519 2.447403,1.180908c-2.374008,0.220032 -3.894806,1.372009 -6.124512,1.948914c1.821609,1.94342 11.749298,2.938293 13.663605,2.90802c-0.498108,-0.367615 -0.618591,-0.546204 -0.917908,-1.121094l1.771118,0.645691c0.316284,-1.380432 -0.716003,-1.174622 -1.49411,-2.085083c0.814301,-1.048035 2.801392,-1.77655 4.635986,-1.51062c0.772705,0.971069 0.996429,1.568115 1.799408,2.358398c0.815918,0.802795 1.691498,1.319824 2.126892,2.398071c-1.664795,-0.566895 -3.47467,-2.502686 -5.466278,-0.837891c0.641693,1.065796 2.051697,0.782715 3.216705,0.993286l17.734985,3.142212c1.969788,0.336426 5.30899,1.672119 6.744995,-0.011108c2.239716,1.087097 1.012299,0.671021 4.013306,0.794006c3.41571,0.140015 8.419189,1.374023 12.079803,1.843933c2.913208,0.373901 5.514587,0.532104 8.320007,1.033569c2.183502,0.39032 6.652588,0.826843 8.385986,-0.439392c-0.945282,-0.595886 -1.848389,-0.289124 -2.354706,-1.226013c0.055817,-0.042175 0.148224,-0.019592 0.184021,-0.101196c0.036194,-0.082153 0.139404,-0.076477 0.190704,-0.090393l1.821899,0.026917c0.664398,0.13147 1.244598,0.305298 1.964874,0.444519c1.640198,0.316895 2.887115,-0.128113 2.311401,-1.771423c-1.284393,-1.534729 -4.355377,-0.076477 -5.681183,-1.450989c0.375,-0.267395 -0.123901,-0.062439 0.539703,-0.199585l2.527374,-0.327454c1.162811,-0.210266 2.563904,-0.622498 3.398712,0.281799c-0.05069,0.023804 -0.141998,0.08075 -0.166107,0.027222l-1.308685,0.218018c0.356293,0.487488 0.642303,0.739197 1.612305,0.670105c0.578278,-0.041443 0.786285,-0.170105 1.043976,-0.634399l0.188507,-0.513916c5.823517,1.75708 11.005493,-0.232788 16.920319,1.724792c0.310394,-0.500793 1.511078,-6.006287 2.289795,-7.780212c1.236481,-2.816772 2.380005,-4.318909 4.029999,-6.269653c2.671387,-3.15863 7.595795,-6.177551 13.551605,-7.040405c8.895691,-1.289246 16.975891,2.02417 23.624298,6.757751c1.509399,1.074646 4.634888,3.529114 5.453491,4.824341c3.969086,0.070313 5.020813,-0.986816 9.991608,0.121582c7.702606,1.717773 14.100098,7.371216 18.278107,13.501099c1.420074,-0.599182 2.701385,-2.092224 5.285187,-3.011475c8.042999,-2.861938 15.818695,1.763672 21.264893,6.690247c2.020813,1.82782 3.405792,-1.299072 10.449402,0.813904c3.457092,1.036926 8.258118,4.036804 9.994415,6.917603c4.245087,-0.728455 5.718292,-1.70697 10.304504,0.004028c9.731873,3.631226 14.019501,14.537476 18.635193,23.06781c0.634979,1.173157 2.9534,1.386658 4.117279,1.734192c3.007599,0.89801 6.076904,2.011475 8.893219,3.131409c4.725616,1.879089 13.774872,4.748108 19.472565,4.547058c0.600159,-0.690796 0.536621,-0.844177 1.055359,-1.841064c8.45459,-0.560181 17.65155,8.544189 28.829163,11.739685c-3.281982,2.941833 -6.742188,-1.428101 -9.237,0.187927c0.722595,1.671875 3.251587,2.616882 5.508301,3.305481c-1.819275,0.1474 -3.723877,-0.036926 -5.560364,-0.036011c-0.750427,0.000305 -2.282227,-0.005981 -2.965149,0.178284c-1.320374,0.356323 0.06781,0.713196 0.20105,1.143799c-1.326904,0.913025 -2.54071,0.824341 -3.478455,1.875916l1.338013,0.546326c1.00061,-1.004944 0.208618,-0.734192 1.943726,-0.764832c0.875916,-0.015259 1.778381,-0.050476 2.631897,0.236145c1.618286,0.543091 1.483398,2.625366 1.299377,4.259888c-1.425171,-0.34021 -0.791992,-0.540833 -0.738403,-2.132507c-0.535706,0.213196 -1.00708,0.591309 -1.33197,1.093262c-0.555603,0.858643 -0.037109,0.627014 0.02887,1.703613c-1.173157,0.039246 -1.462585,0.216309 -2.153992,0.601807c-0.571167,-0.854004 -0.621094,-1.468262 -1.375977,-0.485779l1.830688,0.89801c-0.319519,1.071472 -0.213196,1.800781 -1.284424,1.207581l0.040222,0.679688l0.900879,-0.482178c0.476807,1.094482 0.3526,0.954712 1.846802,0.963196l0.183594,2.196289c-3.112976,0.409912 -2.793457,-1.442505 -2.909363,-2.178101c-1.282715,0.442505 -0.721191,0.200378 -1.622925,-0.640076c-1.314697,-1.225708 -0.872986,0.450378 -0.80249,1.236206l-1.512024,-0.218811c0.213501,1.8927 0.537537,0.78656 -0.63147,1.736206c0.571716,0.541687 0.962097,1.294556 0.469116,2.045776c-1.692017,-0.469482 -0.385803,-0.53717 -0.735596,-1.351624c-1.409607,0.145447 -0.365112,0.452454 -1.687439,0.92865c-0.697876,0.25116 -0.203613,0.462402 -1.225159,0.72937c-0.688843,0.179993 -0.260803,-0.134705 -1.256348,0.327698c-0.410706,-0.829163 0.055908,-0.685181 -0.50116,-1.415405c-0.421204,0.34729 -0.48645,0.398926 -0.901733,0.927185c-3.690063,-0.769592 -1.611511,-1.680847 -2.582275,-2.840759l-0.857239,1.187988c-2.043152,1.66217 0.0354,1.644104 0.655151,2.890686c-0.299438,0.182617 0.054993,0.092224 -0.519897,0.16333c-0.396912,0.049255 -0.430298,0.012512 -0.809021,-0.004028c-0.739014,-0.031677 -0.691711,-0.173218 -1.271912,0.085938c1.213196,0.893799 0.39032,-0.462036 1.638733,1.307068c2.041199,-0.535522 0.472778,-0.276367 2.00177,0.119324c0.850403,0.219971 1.404907,0.084167 2.2771,0.394897c2.077515,0.740112 3.06311,0.076782 3.259277,2.283875l-1.606384,0.046997l-0.496887,1.242737c-0.97998,-0.340698 -0.653687,-0.309204 -1.688416,-0.092896c0.382996,1.181702 0.223999,0.355957 0.68634,1.255066l-1.368835,0.233276c0.595032,1.110657 0.357117,1.515442 0.484131,3.018433c0.602905,0.480713 1.31897,0.870972 0.678101,1.729126l-0.637512,0.4198c-0.041687,0.0224 -0.132385,0.04248 -0.189087,0.081055c1.175171,0.563843 1.039673,0.197327 0.887146,1.750427l1.527039,-0.255981c-0.456604,1.226257 0.075989,1.381592 1.213562,1.77417c1.772705,0.612305 1.136719,0.114807 2.536133,-0.269897l0.812988,1.432373c0.847778,-0.047852 0.757996,-0.229858 1.52533,-0.219971c0.006958,1.127625 0.17749,0.963501 -0.376404,1.631409c-0.938904,-0.294617 -0.229614,0.113892 -0.685425,-0.884399l-0.614319,0.893982c0.609436,0.494934 1.015625,1.011719 1.564148,1.462708c1.383057,1.137512 1.442261,-0.099182 1.87738,0.999817c-0.707214,1.448669 -2.191101,-0.229431 -2.387024,-0.24585c-1.217468,0.19104 -1.450195,0.23645 -2.287903,0.609741c0.358337,1.213501 1.021118,2.404114 1.846252,3.354492l1.193665,-2.195679l0.645203,1.105469c1.06781,-0.920898 0.827087,-1.55188 2.724426,-1.307617c1.723083,2.279602 -0.167603,2.724121 2.049683,4.074036c-0.263611,0.930908 -0.005005,0.872803 0.225281,1.617981c0.182312,0.588501 -0.150513,1.233582 -0.405579,1.909424c-3.066833,0.366211 -2.687805,0.269287 -3.538818,-0.804993l-1.683472,0.96228c-0.582214,-0.877014 -0.014709,-0.460632 -0.768738,-1.063477c-0.939697,0.306702 -1.00238,0.436462 -0.448486,0.987793l0.890991,0.797668c0.627014,-0.125305 0.619629,-0.341003 1.028687,-0.700378l0.757935,0.989807c0.880188,-0.248291 0.117371,0.021912 0.978271,-0.5c-0.025757,0.553589 -0.411865,1.426697 0.485046,1.300781c0.836792,-0.117126 -0.014221,-0.004028 0.539978,-0.492126c0.000977,-0.000793 -0.281189,-0.700684 0.678284,-0.165161c1.230042,0.686462 -0.195557,0.911316 0.934326,1.640381c1.332581,0.859985 0.831116,-0.095276 1.511475,-0.713501c2.288086,0.81488 -0.379883,0.798523 1.782104,2.505005c0.835938,0.659607 2.27594,1.641174 3.57312,1.564697c-0.280884,-0.706116 -0.602417,-1.009399 -0.614624,-1.936401c0.404541,-0.257263 0.5448,-0.445007 1.240234,-0.408081l0.248901,2.221191c0.466492,-0.607483 0.503052,-2.455688 2.153992,-1.676392c0.698669,0.32959 0.460266,0.690186 1.265076,0.942505c0.535828,0.167786 1.2005,0.073975 1.911133,0.301575c0.486389,1.518005 0.016479,2.338013 -0.447327,3.470703l2.358704,1.34198l1.241882,-2.494751c3.368408,0.156189 4.066345,0.094055 4.891235,1.653198c1.351013,2.552795 2.39978,0.784607 2.339355,3.948303c0.81134,-0.299316 1.189758,-0.614197 2.087708,-0.9646c1.131348,0.819153 1.556519,1.015381 3.131226,1.730286c1.299072,0.590088 2.014465,1.169495 2.632507,2.14209c-0.635498,0.325989 -1.391785,-0.235474 -1.171814,1.698486c0.115295,1.015137 -0.092468,0.322021 0.312622,0.902893c0.885254,0.125 0.322571,-0.395203 1.310181,-0.731384l-0.587097,1.850525c-0.883789,-0.50061 -1.36908,-0.430603 -2.520508,-0.41272c-0.985596,0.015503 -1.276978,0.567688 -2.103088,1.048218c0.184021,0.992371 0.476807,2.57251 1.165588,3.270264c0.696777,0.705627 0.297974,-0.468201 0.758911,0.711304l-0.485291,0.166626c-1.099304,0.002991 -3.780945,-2.095337 -4.895203,-2.51123c-0.616211,0.943115 0.236694,0.654846 -0.73584,1.046936c-0.740173,-0.45929 -0.30896,-0.209045 -0.633301,-1.2005l-2.546387,-0.420715l-0.440979,1.434387c-1.194031,-0.373901 -0.993591,-0.550293 -2.218079,-0.605774c-0.707825,-0.032288 -0.973755,-0.239807 -1.500427,-0.607788c-0.34021,-0.237549 -0.248596,-0.111145 -0.560974,-0.410706c-1.298035,-1.244995 -0.975708,-3.778625 -2.972717,-2.974731l-0.343506,-1.873413c-0.021301,-0.038757 -0.303589,-0.465149 -0.309021,-0.475098c-1.088013,0.393738 -1.346985,0.83313 -1.302795,2.204224c-3.542175,0.638977 -3.158691,-0.184204 -4.951294,-1.172729l-1.992188,-0.883789l1.123108,-1.6203c-1.335388,-0.249695 -1.411743,-0.017578 -2.195129,0.307922c-1.27478,-1.184937 -0.543701,-1.713623 -3.187866,-1.701416c-0.891541,1.988831 -0.693298,2.548584 -2.153503,4.190491l1.417908,1.038635c0.473083,-0.261108 0.506287,-0.542603 0.735596,-0.976318c1.210388,3.081909 5.8703,2.063599 7.429871,4.45752l-11.553955,-0.479309c1.57428,2.121399 4.448425,3.854797 7.104675,8.440979c-1.431152,-0.28656 -10.345581,-2.927551 -11.917358,-2.298279c-0.049927,0.019775 -0.127014,0.082214 -0.166443,0.101379c-0.864807,0.426147 -0.088074,0.957336 0.462402,1.277344c0.964294,0.560364 1.016541,0.250854 1.027039,1.477173c-3.415833,0.460022 -5.546326,-2.013977 -9.881104,-1.101868c-0.345825,3.3078 7.960571,3.048401 9.513367,5.976868c-1.23761,-0.294006 -2.337158,-1.180908 -3.325256,-0.793396c-0.622498,0.244019 -2.399841,1.435425 -2.769836,2.00293c0.341919,1.172363 0.961609,1.183167 2.153015,1.633057c-0.128235,1.695129 -0.452209,0.139709 0.421997,1.566406l-2.549683,-0.347778c0.187561,-1.307129 0.188782,-0.688843 0.87616,-1.175537c-2.43219,-0.478149 -4.471069,-1.233093 -7.399902,-0.999451l-0.461182,1.69928l-1.585388,-0.44928l0.5,2.184082c-1.860596,-0.119629 0.425781,-0.711182 -1.886108,-1.206726c-1.094177,-0.23468 -1.722107,-0.150208 -2.882568,-0.524902l-0.128113,-2.061707c-0.864929,-0.638245 -1.053101,-0.869385 -2.629089,-0.784851c0.203796,1.444275 0.037842,0.750305 0.945557,0.814087c1.001831,0.070007 1.079712,0.247803 1.393188,1.045105c-1.627869,0.72168 -0.3974,0.240112 -1.784058,-0.254211c-0.825745,-0.294312 -1.447144,-0.218872 -1.960693,0.333618c1.212097,0.89209 2.901489,0.298767 3.34198,2.207092c-0.589294,0.453796 -0.722778,-0.020996 -1.496704,0.490417l1.020813,1.185364c0.025208,0.052185 0.049561,0.120483 0.075867,0.172424c1.034424,2.047974 0.497498,2.185974 0.947693,4.527466l1.396606,0.620728c0.360352,-0.56012 0.437439,-1.720032 0.754639,-2.292908c1.883301,0.431702 1.064087,1.052185 1.736206,1.873108c0.78656,0.961487 0.518677,0.202393 0.783752,1.515076c0.292847,1.449707 0.613098,0.332642 0.637207,2.194336l-2.233704,-0.085632c-0.577087,-0.09491 -0.278381,-0.22467 -1.020691,-0.719666c-0.78241,0.88385 -1.00946,0.260193 -1.791016,-0.089539l0.504333,1.26532c-1.294006,0.010498 -0.974487,-0.249084 -1.244385,0.378174c0.53595,0.479614 0.631592,0.409912 1.402283,0.571716c0.973999,-0.637207 0.203186,-0.536011 1.28241,-0.850891c0.674866,0.842407 1.396606,1.226196 1.905396,2.144409l0.490417,-0.889526c0.557556,0.634583 0.588196,0.587585 1.073181,1.383301c0.764221,1.25354 2.06311,1.483337 3.103088,2.309631c0.631592,0.50177 0.07428,0.16156 0.709229,0.332275c0.933472,0.250488 0.272461,-0.693115 0.782959,0.393982c0.009033,1.909119 -0.335388,2.175293 1.5896,2.1073c0.443909,-2.036682 -0.005981,-1.545166 -0.093811,-2.782776c1.131348,0.139709 0.600403,0.313782 1.706238,-0.117432c-0.168091,1.671936 -0.229309,0.870544 0.556702,2.403503c1.503479,0.24353 0.374207,-0.715393 1.53241,0.171021c1.219482,0.933716 0.13208,0.831604 1.984558,1.041992c0.80365,0.091492 0.136597,0.104004 0.809021,0.172302c0.661621,0.066895 0.886414,-0.054688 1.954529,0.204102c-0.150635,1.078918 -0.825806,2.154297 -0.013428,3.105103c0.618286,-0.248596 0.131775,0.130127 0.328003,-0.40509l0.162415,-0.85553c1.338806,0.069519 1.44989,0.585144 2.286987,1.331238l-2.008911,1.675476l-0.448181,-0.844116c-0.661621,0.778137 -0.691589,0.329102 -0.799927,1.375305l1.316101,0.637329c0.287537,0.192383 0.257385,0.178284 0.412842,0.343811c-1.338013,1.09729 -1.143005,0.137512 -2.327942,0.376709l-0.160095,1.827454c1.098083,0.825195 1.306824,1.762329 2.039795,2.848022l1.609192,-0.850708l1.109497,2.438416c1.062744,-0.128418 0.925232,-0.324036 2.310242,0.06427c1.090454,0.306213 0.875061,0.51593 1.526489,1.402893l1.962402,-0.230652c1.45929,0.111877 1.080261,1.642578 0.458069,2.578857c-2.199707,0.194214 -4.238098,-1.504578 -6.58905,-1.631897l-0.128418,1.475708c-0.050232,0.018188 -0.139221,0.069519 -0.158203,0.022095c-0.149109,-0.370667 -1.03833,0.88269 -1.184937,0.997498c-1.180542,-0.265259 -1.31897,-1.348999 -2.271362,-2.000549l0.5672,-1.4729c-0.450989,-0.290649 -0.659912,-0.091614 -1.305298,-0.411316c-0.286011,-0.141541 -0.691711,-0.569824 -0.913879,-0.7677c-1.777344,-0.017029 -0.2948,1.167908 -1.957642,-0.25c0.127502,1.337402 0.743225,1.61438 -0.039063,2.342896c-0.534729,0.425171 0.207397,0.060913 -0.32605,0.058899l-1.464355,-0.13208c-0.018433,-0.054443 -0.02301,-0.089355 -0.021606,-0.170898l0.33197,-1.158508l-1.111206,-0.714417c0.490417,-2.445679 0.695618,-1.348083 -0.904175,-3.110718c-0.576599,-0.63501 -1.855591,-2.027588 -2.226685,-2.874573c2.808594,0.008972 1.776489,-0.37793 3.630066,-1.067322c-0.136414,-0.747192 -0.458862,-1.465515 -0.935974,-1.673767c-0.053894,-0.023315 -0.128418,-0.031555 -0.184814,-0.052246c-1.141785,-0.419495 -0.678101,-0.534302 -1.411377,-1.117065c-0.777527,0.504761 -0.430908,1.253784 -1.189148,0.286865c-0.034546,0.05304 -0.070862,0.206299 -0.085571,0.169495c-0.141479,-0.354553 -0.187378,0.359741 -0.27417,0.501709l-1.365112,-0.476196c-0.434631,0.554993 -0.65094,1.475403 -0.825989,2.296326l1.897461,0.078003c0.163025,0.860596 0.487305,1.685486 0.125793,2.240173c-0.671814,-0.620483 -0.718811,-0.976196 -1.230469,-1.539185l-1.438293,0.425781l-0.702148,-1.426697l-1.043152,1.159424c-0.822632,-1.273132 -0.822937,-2.204834 -1.961609,-3.106812c-0.865723,0.208313 -0.613892,0.247986 -1.226196,0.837585c-1.048645,-0.751404 -0.305298,-0.729858 -1.974915,-0.619873c-0.239014,-1.027588 -0.143188,-1.114319 -1.213013,-1.224609c-0.863708,1.452515 -0.281372,1.486816 -0.086365,3.073303c-1.338806,-0.551331 -1.285217,-1.22821 -2.420837,-1.867432c-0.40509,-0.190796 0.585327,-0.179199 -0.3302,0.180054c-0.446777,0.174866 -0.542297,-0.097351 -0.912476,0.490845c-0.532104,-0.976501 -0.066895,-0.685669 -0.959839,-0.96875c0.077942,1.416382 1.026733,1.375549 1.747803,2.470581c-1.803955,0.553589 -0.383179,-0.572876 -1.95697,-1.164185c-0.601013,0.681763 -0.065796,1.644409 0.420105,2.507263c0.4422,0.785217 -0.165894,0.026917 0.218018,0.298218c1.866882,0.851501 0.224976,-3.038818 3.994751,-0.100891c0.714905,0.557007 0.623413,0.85968 0.732544,1.68042c0.200378,1.510254 -0.41394,-0.9823 0.062378,0.437866c0.021179,0.062927 0.04187,0.129822 0.071411,0.18573c0.185059,0.351196 0.84021,0.631165 1.319214,0.495789c1.050781,-0.296814 0.357971,-0.074036 0.797974,-1.081726c0.90448,0.122131 0.093506,-0.510315 0.835571,0.586731l0.300537,-0.791748c1.741577,-0.005981 1.383911,-0.013245 2.521973,-0.583862l0.747498,3.442566l-0.498901,0.478027c-0.555298,0.575378 -0.018372,-0.457031 -0.451599,0.527527c1.0625,1.003174 2.160034,-0.176636 3.901611,-0.132935c0.845093,1.866333 -0.11731,2.283508 0.014526,3.484009c0.120972,1.103821 0.776062,1.345276 0.551086,2.578674c-0.397705,2.177307 0.85968,-0.651672 2.393799,1.137817l0.152527,0.370178c0.013855,0.045715 0.046753,0.136414 0.063171,0.193115c0.096375,0.330505 0.087097,0.452087 0.190796,0.778625c0.229004,0.720581 0.270996,0.446167 0.561035,1.204773c-0.457031,0.362183 -1.638245,1.100098 -1.839111,1.76593c0.637207,-0.201843 0.327881,-0.334412 0.896301,-0.398499c1.095764,-0.124207 -0.062134,0.575989 1.071167,-0.084534c0.652039,-0.379761 1.00293,-0.987 1.146912,-1.602112l0.145386,-0.775269c0.007996,-0.03772 0.016418,-0.120178 0.047302,-0.17041l0.302185,1.473816c-0.08075,0.331299 -0.186768,0.100281 -0.098267,0.559509c0.055481,0.288269 0.967712,1.552002 1.165283,2.099365c-0.79657,0.344421 -0.34021,-0.568665 -1.338501,0.754028c-0.536865,0.711487 -0.560974,1.017273 -1.256897,1.464905c-0.664795,-0.449829 -0.806519,-1.526123 -1.411072,-2.019104c-0.906494,-0.739014 -1.456543,-0.943909 -2.766296,-0.901428c-0.085693,-0.474487 -0.062439,-1.20697 -0.71582,-1.161377c-1.66449,0.116577 0.735291,0.937683 -1.237305,0.796021c-0.368225,-0.826904 0.803284,-1.036926 -0.883301,-2.378357c-0.038818,0.047729 -0.072815,0.20105 -0.079895,0.166199l-0.491821,1.79541c-0.533752,0.67981 -0.887878,0.70874 -1.669556,0.512024c0.372375,-1.276184 0.720459,-1.004089 -0.426697,-1.822693c-0.74585,-0.532104 -0.254211,0.347168 -0.627014,-0.638733c0.235901,-0.393066 0.521301,-0.297607 1.166992,-0.586975c0.116272,-0.56012 0.28949,-1.065796 0.400269,-1.564514c0.258545,-1.161865 0.083923,-0.818298 -0.3974,-1.473389l-0.595581,1.868896c-0.872498,-0.166382 -2.27478,-0.377014 -2.536987,-1.237122c-0.701599,-2.298889 1.19928,-0.592957 0.729065,-2.430969l-1.679749,1.447388c-2.123535,-0.821777 -1.436951,-1.100403 -3.623291,-1.020691c-0.418457,0.01532 -0.975403,0.024109 -1.4505,0.0354c-0.555359,-2.757324 0.658142,-1.319275 0.579651,-3.118408c-0.049866,-1.147217 -1.307556,-2.055725 -2.6651,-2.00177c0.045593,1.976868 0.309814,1.69989 -1.00116,3.142151c0.35907,0.750916 1.275879,2.249023 1.748962,3.035034c0.905945,1.506592 1.003113,0.213989 2.250122,1.666504l0.514221,0.522156c-0.885803,2.532104 0.878479,0.83844 0.250854,2.706848c-0.408752,0.299255 0.091797,0.16748 -0.56665,0.206909c-0.420654,0.025146 -0.082703,0.068298 -0.56665,-0.068604c-0.844666,-0.239014 -4.75119,-3.335815 -7.049774,1.078247c1.041504,0.649109 1.277008,1.241638 1.114288,2.570435l-1.181183,-0.197815c0.006989,-0.746887 0.005981,-1.446167 -0.389526,-1.968994c-0.501984,0.281006 -0.192688,0.152283 -0.533173,0.526428l-0.44751,0.515076c-0.532715,-0.493225 -0.570892,-0.938782 -0.980804,-1.491028c-2.259796,0.304443 -0.872498,-0.286255 -4.592194,-1.483704c-4.794495,-1.543396 -9.963196,-3.303467 -15.214111,-3.349365c1.919708,1.857483 5.943207,1.208984 7.932495,3.653015c-0.298798,0.880981 -0.009003,0.755981 -0.799896,0.901978c0.36792,-0.67981 1.42041,-0.796326 0.171997,-0.999817c-0.650787,-0.105957 -1.120178,0.440491 -1.659698,0.682922c-1.408783,0.633179 -2.359192,-0.410828 -3.6875,-0.879883c-1.910278,-0.674438 -5.928406,-1.772217 -8.142273,-2.009521c1.301392,4.943115 2.714996,8.105103 1.06778,13.950195c-1.171783,4.158691 -3.936188,7.260925 -7.693787,8.692078c-7.443512,2.834717 -15.546295,-1.230469 -20.859009,-6.094971c-0.775787,-0.710388 -1.346191,-1.452515 -2.189178,-2.009216c-2.811401,1.032898 -3.674316,1.599792 -7.281616,1.613525c-0.157288,1.276978 0.544495,3.146973 0.465088,4.796509c-0.077881,1.627258 -0.493988,3.258362 -1.073975,4.60968c-4.083313,9.508789 -15.561096,7.557129 -22.989807,4.188721c-5.036316,-2.28363 -9.650909,-5.821228 -12.208313,-9.858032l-3.956299,-7.079285c-1.142578,-2.529602 -1.984497,-5.707825 -2.832092,-8.456909" id="path20"/>
    <path fill="#010102" fill-rule="evenodd" d="m369.987305,703.089111c-5.580811,1.252319 -9.722809,1.435425 -14.607788,-1.124512c-7.594604,-3.979614 -11.875214,-12.635193 -16.117218,-19.686096c-0.799896,-1.329407 -5.828613,-10.851318 -5.92981,-11.68689c-0.071381,1.561768 1.978302,7.529907 2.521698,9.459167c3.159821,11.218933 -17.840088,13.911621 -25.103302,1.55481l-2.2034,-3.927368c-3.289886,-5.383606 -2.488281,-8.778931 -5.699585,-12.931702c-2.477203,-3.203735 -6.251801,-6.96051 -9.863708,-8.963989c-1.472382,1.78949 -0.689697,10.385254 -8.337891,15.1521c-5.727692,3.56958 -12.731812,3.149475 -19.110596,0.722473c-3.087799,-1.174988 -1.520508,-0.856323 -4.170898,0.27948c-4.473907,1.917603 -10.707306,0.906006 -14.5522,-1.170654c-8.8367,-4.7724 -11.586014,-11.299805 -16.445511,-19.121094c-1.512497,-2.434143 -2.784988,-5.231445 -3.949799,-7.816528c-2.586594,-5.740784 -4.573395,-11.049805 -6.631592,-17.132568c-3.133713,-9.261108 -5.21521,-19.666504 -6.013702,-29.58136c-0.326904,-4.059998 0.264999,-7.771362 0.1306,-11.519348c-0.710602,-1.609802 -11.705902,-6.840637 -13.865601,-7.592041c-6.054291,-2.106201 -12.150391,-3.030273 -17.438492,0.688843c-3.809494,2.678955 -5.132706,9.466003 -6.0009,15.601868c-1.825806,12.899902 1.127304,25.586609 3.885101,38.06189c1.287003,5.820923 2.908691,11.594849 4.932602,16.676208c3.667191,9.206909 8.2117,21.07959 15.821594,27.330505c3.926804,3.225281 8.971405,6.885376 14.734497,6.585205c7.76181,-0.40448 3.249008,-8.469604 9.532608,-12.062012c5.211197,-2.979187 16.470703,-0.384888 19.231689,4.890625c0.91301,1.744507 0.540802,1.834595 1.8983,3.498779c2.865005,3.512207 4.297607,25.028198 3.576508,28.610413c-1.492493,7.411499 -12.905899,6.382813 -18.540604,2.532471c-1.279297,-0.873962 -1.594498,-1.877686 -3.391602,-1.46405c-9.611496,2.213257 -18.353195,0.695251 -27.501801,-2.463928c-11.805695,-4.076477 -19.255096,-9.50061 -26.3367,-16.572205c-3.681,-3.676208 -7.025894,-7.200012 -10.074295,-11.512085c-3.049805,-4.31488 -5.451004,-8.317078 -8.276306,-13.296082c-4.224792,-7.444702 -10.691986,-21.488647 -13.698395,-29.473633c-7.425903,-19.720276 -13.315796,-53.136169 -3.901901,-72.611084c4.473907,-9.255127 12.362198,-16.435608 23.948502,-19.182312c11.747894,-2.7854 26.865097,-0.145996 36.258194,4.60968c10.654602,5.394592 17.880402,12.032532 24.383102,18.692505c0.933411,-0.369385 1.84111,-1.175598 2.872604,-1.745911c8.605698,-4.755676 18.857803,-3.271973 27.365707,0.275818c8.725281,3.638916 15.269592,10.36322 20.968994,17.531982c5.60379,7.048157 10.298798,16.580139 13.220795,25.27771c2.508118,7.465942 4.30661,15.422424 5.587097,23.335938c0.519012,3.207397 2.490814,2.80719 4.914093,4.667786c0.139221,-1.781006 -0.775299,-6.416809 -0.991272,-8.502502c-0.314606,-3.039307 -0.561218,-6.093079 -0.859406,-9.031433c-0.599609,-5.908569 -1.358093,-11.710754 -1.781616,-17.820251c-0.897186,-12.943298 8.916107,-20.485413 20.825012,-16.1745c8.672302,3.139099 19.248688,28.517883 22.326782,36.776367c0.648315,1.739624 5.557312,13.833923 5.568115,13.978516c0.208588,-1.345276 -0.334503,-5.132996 -0.358002,-6.960815c-0.032593,-2.527283 0.058105,-4.895081 0.281494,-7.346191c0.394318,-4.323975 1.285217,-8.72052 2.9729,-12.231812c1.75412,-3.649597 4.033203,-5.667297 7.768402,-7.425354c1.848206,-0.869629 3.838104,-1.427856 6.163116,-1.503845c3.065399,-0.099976 4.312897,0.481445 6.922485,1.066223c-0.224609,-0.700195 -2.787109,-4.902283 -3.355713,-5.786377c-8.356781,-12.996948 -15.758392,-34.150757 -13.988373,-49.732727c2.123383,-18.697083 18.908783,-21.716309 32.801697,-13.716919c3.318481,1.910828 8.106995,5.994202 9.8909,8.488586c3.948578,-0.775452 4.481781,-2.22937 10.609192,-0.783997c3.2052,0.756042 5.867401,2.494507 8.092896,4.165222c6.766907,5.080505 8.985291,12.08551 10.8284,13.66333c1.328003,-3.014954 2.180115,-4.741516 4.423706,-6.337097c2.376892,-1.690613 5.51651,-2.35791 9.062103,-1.461914c2.760895,0.697876 5.167786,2.205688 7.122894,3.651611c2.095398,1.549683 5.052185,4.988953 5.630188,5.362854c3.695526,-2.275391 7.874298,-2.499573 11.937805,-0.120178c1.645813,0.963501 3.041321,2.093384 4.268707,3.324707c1.14151,1.145813 2.712189,3.435364 3.656403,4.232971c1.507813,-0.945557 1.427185,-1.443665 3.770111,-2.145203c1.828278,-0.547363 3.454285,-0.433472 5.123901,0.07312c5.954193,1.807129 8.658997,7.053711 11.590881,11.953674c2.951111,4.932007 5.634918,10.178406 7.816498,15.730347c1.449097,3.688171 2.016815,5.939697 -1.113983,8.395691c-2.731201,2.142395 -6.417908,2.331665 -8.253723,-0.499817c-0.835602,-1.289185 -1.110901,-2.811707 -2.070679,-3.818481c-0.607697,-0.637024 -1.855011,-2.573608 -2.031311,-3.601685c-0.134094,2.163879 2.961914,16.807373 3.580994,20.165894c0.7005,3.800354 1.055115,7.374268 -2.808289,8.28479c-1.868805,0.440491 -3.696594,-0.1026 -5.253693,-0.6698c-0.752899,-0.274109 -1.525909,-0.493835 -2.259521,-0.718933c-0.910492,-0.27948 -1.605499,-0.811462 -2.154602,-0.981262c-1.607483,-0.496704 -4.370697,1.522156 -9.657898,-1.406006c-2.373993,-1.314697 -5.026398,-3.47699 -6.713898,-5.296509c-2.963593,-3.195496 -7.658905,-10.377991 -9.566101,-14.506592c-0.006989,1.550781 1.748199,7.480591 2.21701,9.309204c0.839111,3.271179 1.624298,6.211609 2.429291,9.381897c0.792023,3.117798 1.589417,5.854919 2.693817,9.070801c1.443695,4.203003 1.321777,6.146118 -1.028198,8.919495l0.8862,0.516785c5.248901,2.32782 9.437897,5.611206 13.032776,10.042603c1.961914,2.418518 3.021729,4.549011 4.759918,7.507202c1.616089,2.750488 2.801208,5.069824 4.114502,8.135498c4.060089,9.475098 -5.5737,13.016724 -10.487,10.491821c-2.484894,-1.277039 -3.741821,-4.529236 -5.205597,-7.055725c-1.076324,-1.857178 -2.852203,-6.617493 -5.532898,-6.45697c-1.167023,6.102966 5.474487,29.686707 7.365295,35.777771c1.673187,5.389221 3.273407,11.149719 5.950378,15.622314c0.987122,1.649109 3.115326,5.254822 3.223328,7.572388c0.076599,1.640686 -0.379028,3.096008 -1.169312,4.231018c-1.198212,1.721191 -1.712708,1.408569 -2.944611,2.629395c4.837616,5.167908 3.075623,3.986694 5.740723,8.1828c0.730499,1.149719 1.187988,1.763184 1.835693,3.058289c5.723206,11.445984 -1.723114,22.359985 -14.276917,15.265381c-2.150085,-1.214844 -3.841583,-2.551147 -5.352081,-3.972473c-1.735413,-1.632996 -2.6073,-3.122009 -4.002014,-5.527222c-1.487885,2.007813 -2.715607,3.747742 -6.384705,4.274902c-3.402802,0.489014 -6.314484,-0.917297 -9.197083,-1.563599c0.575806,4.654236 4.521301,9.813293 1.895599,14.600098c-4.621307,8.424927 -20.518616,-0.1026 -24.985199,-5.395996c-1.395203,-1.653381 -2.378204,-4.104004 -3.535919,-5.782959c-1.848785,-2.681519 -2.903503,-6.973755 -3.872681,-10.328796c-0.547913,-1.897522 -0.157318,-2.206238 -1.962402,-2.706848c-2.497101,-0.692505 -4.890594,-1.286682 -7.376617,-1.958191c-8.473602,-2.288086 -19.485687,-5.351807 -23.589691,-13.670715c-1.108002,-2.246399 -2.4151,-3.633972 -3.235413,-6.065002c-1.296875,-3.84259 -0.446198,-4.830444 0.155609,-8.237671" id="path22"/>
    <path fill="#e5e5e6" fill-rule="evenodd" d="m402.011688,707.134399c-0.498901,-4.955322 -7.474884,-26.324829 -9.003693,-31.461975c-3.252197,-10.930115 -9.826813,-35.575439 -15.824097,-44.81012c-1.34021,-2.063599 -2.675903,-4.016113 -4.952118,-5.082214c-3.203186,-1.500366 -4.991486,0.075439 -5.963287,2.684937c-2.450806,6.582092 0.396881,29.271179 1.6745,36.971497c1.366486,8.238281 3.005005,16.567566 5.698212,24.418457c0.776093,2.262329 1.247192,6.570435 -0.450714,8.074402c-1.159698,1.027588 -5.518005,2.296448 -7.505096,2.51239c-8.456512,0.920105 -14.248901,-5.128662 -18.494293,-11.62738c-5.195618,-7.952576 -9.92981,-17.67688 -13.836823,-26.343811c-3.105591,-6.888489 -6.144073,-14.301697 -8.563385,-21.577271c-0.593903,-1.786438 -1.830902,-6.537903 -2.579803,-7.749084c0.035706,4.004456 1.496887,11.226257 2.257507,15.420471c1.759094,9.701294 4.099091,19.432007 6.947388,28.824097c0.682007,2.249023 2.075195,4.867615 0.487,6.705933c-4.37439,5.063477 -15.011383,1.303894 -18.078186,-4.093323c-0.550812,-0.968811 -0.922394,-2.031799 -1.451111,-2.957092c-1.830597,-3.203735 -2.99881,-5.669189 -4.027191,-9.40979c-1.752106,-6.374329 -12.279907,-14.563293 -17.975922,-17.71405c-2.087097,6.932129 -1.224579,22.010437 -17.965973,19.985657c-3.983521,-0.481628 -6.28241,-1.925232 -9.645416,-3.127441c-2.571289,3.658691 -9.203293,2.982605 -12.823395,1.592834c-10.475388,-4.021545 -17.227493,-19.100708 -21.502487,-28.745911c-6.144897,-13.865112 -11.220398,-31.62561 -11.224304,-47.409729c-0.0009,-3.02179 0.369598,-5.339111 0.537994,-8.092102c-5.958099,-5.433228 -19.174393,-11.901001 -27.959793,-11.400085c-2.861603,0.162964 -5.419907,0.916992 -7.590302,2.143005c-6.994507,3.949768 -8.307007,12.510986 -9.227707,20.43866c-1.438599,12.386841 1.087112,23.720642 3.549911,35.177124c2.488495,11.577209 5.497803,19.889526 9.868195,29.831177c4.786606,10.887329 9.051605,17.046997 17.162704,22.335022c3.25499,2.122009 10.506302,5.060669 15.44249,3.317993c10.223206,-3.609375 0.777313,-15.721313 16.096313,-12.047791c8.764389,2.101868 5.365997,4.272278 8.009598,6.673279c2.572998,2.336914 2.618896,8.702942 2.941803,12.072205c0.288498,3.010925 0.48439,6.098999 0.715393,9.175232c0.234695,3.122009 0.928894,6.703003 -1.984802,7.708801c-2.032394,0.701294 -6.423599,0.086182 -8.4189,-0.60553c-3.195496,-1.107483 -4.069092,-2.62738 -5.8992,-4.148499c-7.003799,2.103882 -12.802399,2.345886 -20.089401,0.753235c-5.808197,-1.269714 -12.463089,-3.455811 -17.157501,-5.942322c-6.399002,-3.389099 -11.765793,-7.258118 -16.354797,-12.093994c-3.514404,-3.703491 -4.952698,-4.863708 -8.247391,-9.172729c-6.708801,-8.773987 -11.531906,-18.696411 -16.515213,-29.31897c-5.255188,-11.201904 -8.934799,-20.5495 -11.841995,-34.017395c-6.0466,-28.013733 -5.0905,-57.750488 19.2285,-66.534546c11.980103,-4.327087 27.797699,-1.7677 37.902008,3.280518c7.922897,3.958618 13.747498,9.022705 19.917099,14.635315c1.137787,1.034607 4.965698,5.306396 5.802292,5.731079c2.283508,-1.672485 3.088608,-2.976074 5.952103,-4.32428c2.360703,-1.111694 5.219193,-1.874573 8.264206,-1.955933c16.337692,-0.435669 29.417892,11.79895 37.437393,24.2453c7.379395,11.453125 11.153198,23.055359 14.032623,37.465515c2.676788,13.39679 -0.287109,5.892395 11.116364,14.656494c1.047699,0.80542 1.8862,1.715332 2.930237,2.251648c-0.025024,-2.318237 -0.955322,-6.888245 -1.331207,-9.453613c-0.465393,-3.177002 -0.906219,-6.426697 -1.150299,-9.673706c-0.479919,-6.394226 -1.410217,-13.146301 -2.066711,-19.447388c-0.759094,-7.285095 -0.729889,-13.49292 4.15329,-16.707397c2.163696,-1.424133 5.516205,-2.264954 8.736389,-1.624817c3.732605,0.741821 4.962616,1.906799 6.876526,4.117615c5.897491,6.811584 11.387878,19.346069 15.0112,28.16217c1.082001,2.632507 1.985077,5.207825 2.975494,7.814026c1.908905,5.023804 3.965698,10.348083 6.574982,15.008606c1.076324,1.922058 3.280823,5.69928 5.875916,4.822754c0.368195,-1.405701 -2.985992,-15.249756 -2.011993,-24.875671c0.899689,-8.888916 2.458496,-15.313904 9.617096,-18.003967c11.31311,-4.25116 20.162781,7.394165 24.94458,14.809082l5.453003,8.662109c1.710724,-4.299927 5.408813,-8.5354 10.555603,-9.454102c9.497009,-1.69574 21.414703,7.044373 26.529205,13.43988c1.94339,2.430115 8.032013,11.831177 8.207214,12.002686l0.439301,-0.663879c0.819183,-1.506592 1.426392,-2.936096 2.561096,-4.285706c5.157104,-6.133606 11.747101,-3.96759 18.055603,-1.711487c8.069397,2.885864 12.472198,8.672607 16.542084,15.563599c2.07901,3.519775 9.703308,14.201599 0.90802,14.926392c-3.04071,0.25061 -3.51532,-1.476013 -4.606628,-3.635376c-1.589081,-3.145447 -3.647278,-7.33075 -6.523895,-9.406799c-1.569,-1.132446 -3.909576,-2.196899 -5.673004,-0.700256c-1.574677,1.336304 -1.374481,4.186035 -1.162476,6.608704c1.278076,14.617737 6.43689,30.927429 11.338287,44.789124c0.758789,2.145874 1.719208,3.614502 2.757507,5.318726c8.122986,13.329895 -7.8862,9.047852 -13.821106,4.741455c-3.85321,-2.795471 -4.289703,-4.626709 -6.817596,-9.125854c-4.197601,-7.470398 -10.472595,-27.587646 -12.381195,-35.900208c-2.8573,-12.446289 -4.056702,-25.812622 -16.566193,-31.500793c-5.139526,-2.337219 -8.1091,1.302185 -9.019623,5.66156c-1.950806,9.3396 7.389404,42.898132 10.59021,53.092102l5.042297,14.806702c0.560699,1.474609 1.154602,1.278503 2.467285,1.716431c2.009521,0.670349 4.078522,1.374756 6.073212,2.012268c4.425201,1.41449 7.904388,2.304016 10.782196,5.139221c1.572021,1.548889 2.20932,2.419983 3.358398,4.7146c0.983704,1.964355 2.116699,2.782471 2.922302,5.19281c1.693115,5.066101 0.076813,9.802795 -5.462097,9.386658c-3.635986,-0.273315 -9.169495,-2.661499 -12.641083,-3.685608c0.804688,3.588318 5.769073,14.758301 4.696686,17.847229c-1.95929,5.644897 -13.422913,-0.28833 -15.940308,-2.052002c-2.076996,-1.455078 -4.156799,-3.413208 -5.315002,-5.978027c-2.564178,-5.678894 -2.960785,-4.775452 -4.9198,-11.945496c-1.626801,-5.954468 -0.165802,-4.008789 -10.357483,-6.854675c-5.854401,-1.634827 -11.815918,-3.089783 -16.518311,-6.022522c-7.030792,-4.384888 -5.42099,-5.690857 -7.833282,-9.099792c-2.785309,-3.936462 -2.6427,-8.862 1.178101,-11.589172c2.995087,-2.137939 5.354279,-0.819824 8.584991,0.158203l17.493683,5.564697z" id="path24"/>
    <path fill="#e5e5e6" fill-rule="evenodd" d="m365.187408,591.266296c-6.063904,-11.712219 -15.987091,-41.210083 -4.372711,-51.632324c1.232819,-1.105957 2.611816,-2.11908 4.626709,-2.762268c4.204315,-1.342224 8.934204,-0.931519 12.970215,0.509888c2.906586,1.038391 4.8526,2.17511 7.233185,3.842102c2.157715,1.510925 4.093201,3.234924 5.867401,5.188293c0.799591,0.880127 1.138916,0.877014 1.826416,1.8479c0.543396,0.767883 1.174072,1.189392 1.531494,1.848206c3.522583,-3.506775 8.531189,-3.424011 12.793304,-1.237915c1.0177,0.522095 1.895782,0.974243 2.671997,1.51001c2.671906,1.844788 3.650391,2.835815 5.470581,5.086975l0.571411,0.65741c0.036896,0.041992 0.085114,0.097534 0.121094,0.138611l0.384613,0.441406c5.46579,7.758972 6.423279,13.351685 8.6185,23.706726c0.383179,3.227478 0.083282,2.664246 2.253204,4.043579l3.119293,2.259521c0.492584,0.471985 0.30188,-0.034302 0.170898,0.353149c-0.002014,-2.940979 -7.163391,-17.634094 -2.172516,-25.923706c1.608124,-2.671082 3.934509,-3.847961 7.247925,-3.45874c4.117584,0.483582 8.193878,3.798645 10.611298,6.591858l3.684387,4.813599c1.929596,-2.879517 4.053589,-4.725708 8.495209,-3.57428c2.734802,0.708984 6.367706,3.826782 7.460205,5.609497c0.45639,0.290588 1.31189,1.902405 1.699097,2.417725c0.627594,-0.797729 2.080597,-9.179199 9.209991,-5.231934c3.575897,1.97998 5.376495,5.322632 7.662598,8.990601c4.846405,7.775818 4.999207,9.055603 8.314911,16.706299c0.495483,1.143494 0.981903,2.225525 0.147095,3.180176c-0.553314,0.633057 -1.954712,1.308533 -3.263214,1.161316c-0.678589,-0.312256 -1.694,-3.221497 -2.247589,-4.168274c-0.469696,-0.803894 -0.555603,-0.570618 -0.99469,-1.165588c-1.127594,-1.528198 -4.350311,-10.434143 -7.132202,-14.212646c-0.366608,-0.497803 -0.549408,-0.768188 -1.082611,-1.136169c-0.477905,-0.32959 -1.219482,-0.643127 -1.622803,-0.233826c-1.571503,3.112122 7.154114,37.307922 6.050201,39.584106c-0.858307,1.161133 -3.969604,-0.277466 -4.937897,-0.555908c-3.098785,-0.891174 -2.474701,-0.456055 -3.139893,-3.520874c-1.101593,1.733093 -4.219116,3.048706 -7.282501,1.929321c-7.312317,-2.671997 -11.393616,-10.000122 -15.170502,-16.477234c-2.485413,-4.262512 -4.988403,-9.102905 -6.315002,-14.492981c-1.140991,-4.634399 -0.251404,-15.390991 -4.15451,-16.97052c-1.641174,-0.664063 -2.855896,0.480835 -3.360199,1.352417c-0.729889,1.262573 -0.721405,2.926819 -0.490082,4.480774c1.044281,7.013123 8.229279,33.513428 10.368286,42.121094c0.693115,2.789001 1.422211,5.487915 2.259216,8.260742c0.743591,2.462708 2.590576,5.947388 1.127075,8.147095c-1.955872,1.342957 -8.966888,-1.669434 -10.706177,-6.205444c-0.686798,-1.790283 -0.3396,-1.359192 -1.478821,-2.657959c-1.737091,-1.979736 -2.618683,-6.757813 -3.365875,-9.624207c-1.146912,-4.399109 -2.398926,-9.111389 -3.598328,-13.55072c-0.533691,-1.975464 -0.952087,-5.185669 -2.16449,-6.457092c-0.574585,-0.602295 -4.02121,-3.606812 -4.929199,-3.715271c-0.363708,3.640503 -0.870789,7.26709 -3.287292,8.559204c-3.969116,2.121948 -6.220093,-0.033997 -9.343597,-1.02594c-2.372009,1.416199 -4.092407,1.464417 -6.596802,0.004028c-2.019409,-1.17749 -3.27771,-2.537903 -4.479309,-4.365112c-6.18631,-9.408691 -10.502106,-20.073181 -12.090607,-31.281677c-0.428589,-3.022949 -0.28009,-5.388123 -0.418701,-8.467712c-2.618591,-1.812988 -8.452576,-6.110291 -13.3367,-4.548218c-4.7211,1.510315 -5.41098,7.600586 -5.407593,13.361389c0.005005,9.355225 3.897614,22.869446 7.191711,30.491516c5.003204,11.5755 14.4505,12.371216 15.73288,7.955688c0.827118,-2.847656 0.356323,-4.494568 5.249725,-2.93219c4.373291,1.396423 2.08548,3.884888 4.092102,5.196228c2.417999,1.579956 2.222382,3.646484 2.545776,7.112671c0.276123,2.954834 2.778595,10.552795 -4.304688,7.419128c-1.938293,-0.857727 -1.515594,-1.083435 -2.644989,-2.192322c-5.643707,0.451294 -5.216827,1.440002 -12.117523,-1.196228c-3.8974,-1.48877 -6.456787,-3.194702 -9.145386,-5.333679c-2.636505,-2.096985 -4.714294,-4.625 -6.895294,-7.580994c-0.949921,-1.287231 -5.167603,-7.728027 -5.329712,-8.98999" id="path26"/>
    <path fill="#010102" fill-rule="evenodd" d="m259.727509,648.797119c-6.582001,-1.277283 -8.465103,-5.422424 -10.935501,-11.157715c-4.486404,-10.414185 -7.98349,-25.393066 -6.985397,-37.036377c0.235596,-2.747009 0.8918,-6.845886 1.875107,-9.145996c1.456787,-3.407227 3.015488,-4.010437 7.317093,-3.336609c6.414795,1.004578 9.536896,5.224182 11.609314,10.449585c4.09549,10.327209 7.584381,25.794434 6.451874,37.357483c-0.317688,3.244324 -0.656494,6.608704 -1.720276,9.318115c-1.358704,3.459412 -2.935913,4.459229 -7.612213,3.551514" id="path28"/>
    <path fill="#ec1c24" fill-rule="evenodd" d="m453.28421,720.157898c-3.355896,2.347595 -2.730591,2.817322 -3.863892,4.043274c-0.041107,0.044556 -0.11731,0.109253 -0.152496,0.145203c-0.036011,0.036499 -0.1026,0.100647 -0.159027,0.145142c-0.944183,-3.199524 -4.475586,-6.420837 -7.00238,-7.978394c-3.289398,-2.027649 -9.484497,-3.717102 -13.780396,-5.123352c-2.643921,-0.865479 -2.1073,-0.890686 -4.180511,-7.090881c-1.271606,-3.802063 -2.419983,-7.534485 -3.650513,-11.51886c-2.480896,-8.032837 -4.271484,-15.679199 -6.172089,-24.012817c-0.966583,-4.238403 -1.76181,-8.435608 -2.462494,-12.74353c-0.6539,-4.021484 -1.860107,-9.430481 0.258209,-13.089783c2.19458,-3.790222 11.224701,2.783875 14.33429,13.458374c2.085999,7.161438 3.355896,15.424133 5.949097,24.213806c1.137207,3.855408 2.439209,7.407227 3.732605,11.244751c1.307587,3.878967 2.514587,7.488586 3.958588,11.225464c1.428711,3.697021 5.889801,11.555725 8.798706,14.00769c1.494202,1.259399 2.683594,1.855835 4.392303,3.073914" id="path30"/>
    <path fill="#ec1c24" fill-rule="evenodd" d="m377.655609,696.780273c0.223602,-3.074524 0.097809,-5.975708 -0.923309,-8.558105c-4.441803,-11.231384 -10.389496,-50.145691 -6.804199,-59.50177c4.050415,0.679199 7.801819,11.106445 9.377014,15.484863c1.085388,3.016296 2.427582,6.129883 3.324982,9.164917l11.590607,38.467896c0.888092,3.06311 2.139893,6.72522 2.751617,9.766968l-9.289398,-2.763672c-3.484711,-1.045227 -5.893005,-2.326721 -10.027313,-2.061096" id="path32"/>
    <path fill="#ec1c24" fill-rule="evenodd" d="m247.538605,591.409424c6.393494,-0.544006 9.582184,3.145874 11.32489,7.458313c4.972595,12.302856 9.937408,33.482788 4.462891,46.576904c-5.992188,0.446655 -8.747391,-2.816528 -10.800293,-7.86084c-1.838287,-4.517761 -3.391388,-8.997192 -4.726486,-13.888306c-2.7397,-10.036682 -4.305801,-22.385193 -0.261002,-32.286072" id="path34"/>
    <path fill="#ec1c24" fill-rule="evenodd" d="m409.404785,617.204712c0.474213,-3.439331 -0.054993,-5.400879 -0.356903,-8.652832c-0.357788,-3.855042 -0.496704,-4.667786 -1.882202,-7.811646c5.553589,0.962891 4.93512,-0.422302 6.565613,-0.042847c2.417389,0.562744 6.991089,2.812012 11.396393,-0.665588c2.099609,-1.65741 1.809113,-2.613464 3.131409,-4.471863l5.093597,19.371948c0.838196,3.126953 1.52301,6.768005 3.259003,9.230103c0.499207,0.707947 0.911591,0.883911 1.294281,1.663147c0.373627,0.760559 0.538605,1.403503 0.991028,2.185486c1.027802,1.776489 2.270782,2.404419 2.918793,3.440186c-1.727112,0.661926 -6.734009,0.635498 -9.957001,5.692505c-1.193115,-0.709229 -4.776306,-7.735718 -9.542816,-11.677002c-2.795776,-2.311707 -8.610779,-6.920471 -12.911194,-8.261597" id="path36"/>
    <path fill="#ec1c24" fill-rule="evenodd" d="m385.966492,554.142578c0.075684,8.17572 1.681793,14.327698 3.928497,21.350586c3.498291,10.934021 7.137909,14.154541 8.270111,17.294739c-5.135223,-0.404541 -6.874023,1.320679 -7.819397,5.823181c-2.635315,-0.010803 -4.860321,-1.841919 -6.275604,-3.315674c-1.699921,-1.769958 -2.368896,-3.536804 -3.476715,-6.33374c-3.58609,-9.054688 -7.320496,-22.743164 -5.952179,-32.789978c1.175781,-8.634705 7.014893,-4.318909 11.325287,-2.029114" id="path38"/>
    <path fill="#e5e5e6" fill-rule="evenodd" d="m467.289886,747.849487c-4.087311,-1.061768 -5.120483,-1.759705 -7.822205,-4.065369c-4.052399,-3.458313 -3.227783,-4.274109 -4.9646,-7.048157c-1.557587,-2.488159 -3.270294,-5.012451 -2.369507,-9.22699c0.674408,-3.154358 3.033112,-5.257996 6.857025,-4.973999c7.095184,0.527344 9.816681,7.27063 12.492584,11.197388c1.660492,2.436401 2.945801,5.814209 2.561707,9.548828c-0.402802,3.915222 -2.771515,5.603027 -6.755005,4.568298" id="path40"/>
    <path fill="#a8a9ad" fill-rule="evenodd" d="m416.883087,556.70459l-0.384583,-0.441406c-0.036011,-0.041077 -0.084229,-0.096619 -0.121124,-0.138611l-0.571381,-0.65741c-1.820221,-2.25116 -2.798706,-3.242188 -5.470612,-5.086975c-0.776184,-0.535828 -1.654297,-0.987915 -2.671997,-1.51001c-4.262115,-2.186096 -9.270691,-2.26886 -12.793304,1.237915c-0.357391,-0.658813 -0.988098,-1.080322 -1.531494,-1.848206c-0.6875,-0.970886 -1.026794,-0.967773 -1.826416,-1.8479c-1.7742,-1.953369 -3.709686,-3.677368 -5.867401,-5.188293c-2.380585,-1.666992 -4.326599,-2.803711 -7.233185,-3.842102c-4.036011,-1.441406 -8.7659,-1.852112 -12.970215,-0.509888c-2.014893,0.643188 -3.39389,1.656311 -4.626678,2.762268c-11.61441,10.422241 -1.691193,39.920105 4.372681,51.632324c-0.351196,-0.25061 -0.161896,-0.065796 -0.4422,-0.409912c-2.559998,-3.142517 -8.098877,-18.218567 -9.013,-21.421692c-2.194275,-7.688721 -4.335876,-19.263672 -1.936981,-27.500122c3.954407,-13.575378 19.084595,-13.093994 30.361694,-4.351074c2.831207,2.195068 7.688599,7.609314 7.896698,7.753296c4.055298,-4.149109 10.377899,-2.921997 15.052002,0.193298c3.442108,2.294373 8.333008,7.308289 9.777496,11.1745" id="path42"/>
    <path fill="#29100d" fill-rule="evenodd" d="m402.661987,564.996826c0.002991,-2.649902 -0.249695,-7.812866 2.278809,-8.448425c7.737091,-1.94519 9.212585,15.989624 9.206909,20.464111c-0.003021,2.477844 -0.103821,7.100342 -1.920227,7.942688c-1.253479,0.581421 -3.059692,-0.010193 -3.986389,-0.568848c-1.33139,-0.802551 -1.487885,-1.560852 -2.072388,-3.092346c-1.851318,-4.850098 -3.514099,-10.659363 -3.506714,-16.29718" id="path44"/>
    <path fill="#29100d" fill-rule="evenodd" d="m464.439087,602.23999c-3.286499,-0.611694 -3.5354,-2.056213 -4.635986,-5.185974c-0.864319,-2.457031 -1.618103,-5.033142 -2.146423,-7.643311c-0.585693,-2.892517 -0.964691,-5.934937 -0.914795,-8.965698c0.048492,-2.959412 0.221405,-7.118591 3.700897,-6.398926c3.325104,0.687927 3.950714,2.083191 4.890625,5.007385c1.250397,3.890808 6.228882,24.512329 -0.894318,23.186523" id="path46"/>
    <path fill="#a8a9ad" fill-rule="evenodd" d="m425.501587,580.411316c0.667511,0.275818 2.442596,1.521301 2.743896,1.856079c-0.045898,-1.319153 -1.299988,-4.976196 -1.721191,-6.376465c-1.903992,-6.330139 -4.07309,-15.804016 0.530701,-20.769836c5.565796,-6.003662 14.644897,1.281311 18.549011,6.59314c0.662476,0.901184 1.125671,1.768005 1.869476,2.618103c0.903107,-0.736694 1.310211,-2.735413 4.592407,-3.604187c2.412811,-0.639038 4.957489,0.193542 6.684113,1.325378c2.512299,1.647278 6.491302,5.731384 7.62149,9.072266c-1.092499,-1.782654 -4.725403,-4.900452 -7.460205,-5.609497c-4.441589,-1.151367 -6.565582,0.694824 -8.495209,3.574341l-3.684387,-4.813599c-2.417389,-2.793213 -6.493713,-6.108337 -10.611298,-6.591919c-3.313416,-0.389221 -5.639801,0.78772 -7.247894,3.458801c-4.990906,8.289612 2.170502,22.982727 2.172485,25.923706c0.131012,-0.387512 0.321716,0.118774 -0.170898,-0.35321l-3.119293,-2.259521c-2.169891,-1.379272 -1.869995,-0.816101 -2.253204,-4.043579" id="path48"/>
    <path fill="#ffffff" fill-rule="evenodd" d="m293.3172,704.474121l0.248901,-1.010315l1.410797,-0.046204c-0.036804,-0.160706 -0.107086,-0.161255 -0.128998,-0.236694l-4.053802,-1.364014c-2.132202,-0.439697 -2.817902,-0.858093 -4.45459,-1.407349l-0.588196,1.551392c2.500702,0.040771 3.901581,0.633179 5.909576,1.487c-1.662476,0.652588 -4.135376,-0.145935 -5.680603,-0.728821c-0.936584,-0.353394 -1.740479,-0.767578 -2.661194,-1.045105c-1.593903,-0.480164 -1.804199,0.200684 -3.648102,-0.748596c-0.838196,-0.431702 -0.912201,-0.077698 -1.864685,-0.346069c-0.922607,-0.26001 -1.732208,-0.886414 -2.7612,-0.961548c-1.38501,-0.101196 -0.967194,0.466003 -2.168793,0.02124c-0.215424,-0.07959 0.149078,-0.10321 -0.762817,-0.277832l-2.182404,-0.381165c-0.044495,0.000977 -0.696686,0.217102 -0.733276,0.232361c-0.056122,-0.17041 0.685699,-0.898865 -2.422821,-1.833374c-1.904297,-0.572632 -6.961304,-1.587708 -8.078094,-2.211914c-0.564697,-0.315491 -1.280487,-0.687073 -2.021393,-0.720886c-1.364105,-0.062012 -0.977402,0.265564 -1.8992,0.706116l-0.487305,-5.229919c2.771393,-1.160828 4.41861,-0.387207 6.571289,0.833374c0.556702,-0.451294 0.77301,-1.284668 1.2883,-0.304382c0.411316,0.781982 -0.184784,1.248291 0.183105,1.845886l0.631897,-1.574097c1.825806,0.25061 3.644196,1.110901 4.628693,1.903198c0.03653,-0.011902 0.078827,-0.03009 0.08783,-0.075073l0.608093,-0.324585c0.546204,1.105774 0.449493,1.644958 0.302704,2.895569l1.957581,-0.799866c0.789215,-0.75415 -0.720581,0.026245 0.611206,-0.699341l0.618805,1.2146c0.021484,0.019592 0.087799,0.051636 0.1091,0.072021c0.021301,0.020691 0.082489,0.060913 0.102905,0.083618c0.020996,0.024048 0.071686,0.077393 0.091003,0.104858c0.020691,0.029541 0.058899,0.095825 0.076782,0.129028c0.049011,0.089783 -0.014709,0.241211 0.207214,0.656799c1.284698,-1.041504 2.61438,0.224976 4.188782,0.616516l0.490601,-0.911926l0.274719,0.850403c0.532104,-0.696777 -0.016418,-0.35321 0.629578,-0.653687c0.054413,1.655701 0.249725,1.080261 4.676025,2.225159c4.612274,1.193115 12.619598,3.878113 16.274597,4.541992l-1.192017,2.739136c-1.519592,0.088989 -3.236603,-0.360596 -4.390594,-0.817505" id="path50"/>
    <path fill="#ffffff" fill-rule="evenodd" d="m500.983887,731.836914c0.234497,-0.027832 0.710999,-0.090698 0.918213,-0.068298c1.301605,0.140869 -0.260498,-0.062134 0.735901,0.217102l0.301788,0.090515c0.450806,0.050049 0.472015,-0.167053 1.177612,-0.28833c0.348602,0.423218 0.382904,0.629028 0.737793,1.117737c0.706085,-0.296509 0.709808,-0.300842 1.119995,-0.915344c-1.898895,-1.265381 -3.080414,0.703003 -3.496613,-2.480591l1.852814,0.495728l-0.466614,-2.992798c0.993805,0.226501 1.222626,0.123901 1.970917,-0.168945c-0.142303,-0.44928 -0.223114,-0.608276 -1.173218,-1.070679c-1.013397,-0.493225 -0.90799,-0.391724 -1.529297,0.145691c-0.277283,-0.895081 -0.345001,-1.157104 -1.197388,-1.553101c-0.818909,-0.380371 -0.726501,-0.129517 -1.48111,-0.728516l-1.08078,0.894897c-1.347107,-0.769287 -0.22171,-0.013245 -1.572723,-0.018372c-0.69278,-0.002014 -1.527283,-0.255676 -1.928101,-0.615723c0.883209,-0.973999 1.220612,-0.573059 2.670502,-0.522949c-0.513885,-1.504639 -1.543182,-1.94281 -2.882599,-2.337158l0.610596,-1.440552c-0.774689,-0.339294 -0.197784,0.019287 -0.73468,-0.383789c-1.200195,0.849182 -0.957306,1.801086 -2.877808,1.69989c0.786713,-0.998291 1.144989,-0.286621 1.670807,-1.816711l-1.864594,1.03009c-0.218323,-0.928101 -0.426697,-1.416199 -0.261414,-2.217285c0.713196,0.002991 0.503998,-0.063416 1.201599,0.504272c0.265289,0.215698 0.263092,0.231323 0.392914,0.351196c2.169586,-0.405884 -1.685516,0.533813 0.536591,-0.206604c1.656006,-0.55188 2.787598,-0.002991 3.965393,0.528748l-1.212982,-0.442505l0.492676,1.821167l1.431824,0.104126l0.203186,1.855774c0.742401,0.09552 2.496796,0.244629 1.73111,-0.713989c-0.260498,-0.326294 -1.109222,-0.274719 -1.788605,-1.2229c0.872192,-0.065796 1.535492,-0.025818 2.316986,-0.04541c1.344818,-0.033386 0.294006,-0.674561 1.173615,0.674683c1.082489,-0.678101 0.14679,-0.698486 2.023895,-0.707458c-0.4935,1.35968 -0.854401,1.035461 -1.02359,2.997009c1.168701,1.321472 0.069489,-0.33905 1.781586,2.110962c1.26712,-0.822876 0.698395,-0.399963 2.114105,-0.422668c2.393799,-0.038208 1.360901,-0.049622 2.70929,1.497009c0.399719,0.458374 0.152222,0.346985 0.814423,0.579346c0.179993,-0.808655 0.075378,-0.832458 -0.286011,-2.077759c-0.234711,-0.809021 0.24411,-0.17572 -0.292786,-0.680298c-0.993927,-0.933716 -2.022522,0.476807 -2.111328,-1.742188c1.275299,-0.781799 2.418304,-0.923523 3.871918,-0.245239c-0.005005,2.039917 -1.008911,4.232422 -0.486694,5.629883l-2.018005,0.153442c-0.409119,1.447083 -0.165009,1.776489 0.226501,2.85791l-1.208405,0.641479c0.097504,0.781982 0.198395,0.758179 0.407898,1.646912c-0.33139,0.116516 -0.348114,0.081299 -0.672089,0.297058c-0.0448,0.029724 -0.103821,0.073425 -0.148315,0.107117l-0.552704,0.550842l-5.228485,-1.747314c-0.470612,-0.182617 -1.110107,-0.497986 -1.58551,-0.727112" id="path52"/>
    <path fill="#ffffff" fill-rule="evenodd" d="m198.819199,522.269897c-0.594101,0.746582 0.546509,1.883606 -5.064392,-0.826111c-0.0448,-0.02179 -0.126709,-0.059814 -0.186203,-0.096069c0.430603,-2.641296 1.477997,-2.440308 3.944702,-2.317322l-0.534607,-1.397217c1.881897,0.193909 2.5186,1.598206 3.557205,2.578735c3.266602,-0.101501 8.468491,-0.137817 10.397491,2.756714c0.571106,0.856873 1.4048,1.886963 1.248001,3.162598c-2.610901,0.980469 -10.914993,-3.028015 -13.362198,-3.861328" id="path54"/>
    <path fill="#ec1c24" fill-rule="evenodd" d="m544.687683,716.296326c0.434509,-0.521118 1.213989,-1.023926 1.69342,-1.396667c1.079651,-0.84021 0.855164,-0.856323 2.212952,-0.424622c0.189941,-0.89209 -0.056396,-0.729431 0.645996,-1.244995l2.037048,0.761414c0.124084,2.052551 0.276855,1.322083 -0.710693,2.059692c1.292603,1.057556 2.157959,0.811157 0.682251,2.749573c-0.406494,0.533691 -0.25,0.549927 -0.633484,1.033203l-1.617981,0.122681c-1.412292,-3.089966 -1.809387,-1.797363 -4.309509,-3.660278" id="path56"/>
   </g>
  </g>
 </g>
</svg>